<svg id="epBaYcEtIAg1" xmlns="http://www.w3.org/2000/svg" xmlns:xlink="http://www.w3.org/1999/xlink" viewBox="0 0 300 300" shape-rendering="geometricPrecision" text-rendering="geometricPrecision"><defs><linearGradient id="epBaYcEtIAg2-fill" x1="0.849084" y1="1.286016" x2="0.159645" y2="-0.228076" spreadMethod="pad" gradientUnits="objectBoundingBox" gradientTransform="translate(0 0)"><stop id="epBaYcEtIAg2-fill-0" offset="0%" stop-color="#e0811b"/><stop id="epBaYcEtIAg2-fill-1" offset="100%" stop-color="#ffae38"/></linearGradient></defs><path d="M150,50l78.748279-.481439c0,0,7.821111,1.648583,13.067394,6.87758c4.427947,4.413357,8.184325,14.442924,8.184325,14.442924v158.872072c0,0-1.354653,8.824686-5.797188,13.281811-4.51534,4.530169-15.454531,7.00705-15.454531,7.00705h-157.496562c0,0-9.774266-1.177292-14.442922-5.845948-4.303917-4.303917-7.565332-14.442913-7.565332-14.442913v-158.872072c0,0,3.339278-10.12005,7.565332-14.442924C61.266766,51.836037,71.251717,50,71.251717,50L150,50Z" transform="matrix(.916502-.400031 0.400031 0.916502-47.03689 72.598666)" fill="url(#epBaYcEtIAg2-fill)" stroke="#3f5787" stroke-width="0" stroke-linejoin="round"/><path d="M117.897728,89.693908l23.378751-10.538475l98.475926,107.602475-25.447042,10.628611-32.260508-36.451169-34.420247,12.691884l3.126426,49.894088-24.478684,12.37964-8.374622-146.207054Z" transform="translate(-4.997097 3.969838)" fill="#5c3903" stroke-width="0"/><path d="M145.529574,150l21.383769-8.321871-24.383769-27.081207l3,35.403078Z" transform="translate(-4.9971 3.96984)" fill="#d88f25" stroke-width="0.6"/></svg>
